<svg width="97" height="59" viewBox="0 0 97 59" fill="none" xmlns="http://www.w3.org/2000/svg">
<g >
<path d="M1822 1458 c-17 -17 -18 -1248 0 -1266 14 -14 106 -16 128 -2 13 8
15 89 18 610 1 330 -1 615 -6 633 -8 31 -10 32 -68 35 -37 2 -64 -2 -72 -10z"/>
<path d="M528 1420 c-120 -20 -148 -69 -148 -258 0 -144 -8 -184 -47 -224 -37
-38 -37 -89 0 -123 37 -35 47 -82 47 -224 0 -104 3 -132 20 -166 23 -48 76
-82 143 -91 86 -12 117 13 98 81 -6 23 -16 32 -44 40 -68 19 -71 28 -77 203
-4 131 -8 163 -23 186 -18 27 -18 29 2 76 18 41 21 69 21 177 0 163 3 168 100
213 9 4 16 24 18 54 3 42 1 47 -23 56 -15 6 -29 9 -33 9 -4 -1 -28 -5 -54 -9z"/>
<path d="M1410 1409 c-71 -14 -151 -59 -174 -99 -18 -30 -21 -56 -25 -191 -5
-236 26 -327 124 -365 34 -13 61 -15 110 -11 57 5 66 4 75 -13 13 -25 13 -133
-1 -163 -25 -54 -90 -59 -112 -9 -23 55 -35 62 -109 62 -64 0 -69 -2 -78 -25
-20 -52 15 -140 79 -198 116 -105 325 -59 385 85 14 31 16 94 16 390 0 350 0
353 -24 403 -50 105 -151 156 -266 134z m75 -185 c32 -13 45 -59 45 -159 0
-141 -29 -192 -91 -161 -41 20 -50 52 -47 168 3 97 5 109 27 132 25 27 38 31
66 20z"/>
<path d="M2255 1401 c-46 -21 -86 -58 -124 -115 l-26 -40 0 -360 c0 -351 1
-362 22 -401 67 -124 220 -172 344 -107 61 32 113 93 129 152 7 26 10 159 8
372 -3 299 -5 337 -21 370 -26 51 -83 107 -131 129 -54 24 -148 25 -201 0z
m146 -190 l29 -29 0 -295 c0 -284 -1 -295 -21 -321 -18 -23 -28 -27 -63 -24
-36 3 -43 8 -59 38 -16 31 -17 64 -15 323 l3 289 28 24 c37 32 62 30 98 -5z"/>
<path d="M2939 1409 c-63 -10 -128 -40 -162 -76 -42 -45 -52 -118 -40 -305 9
-141 12 -160 36 -201 39 -66 96 -92 187 -84 86 7 95 -1 95 -92 0 -76 -20 -117
-61 -127 -30 -8 -59 16 -79 63 l-14 33 -74 0 c-83 0 -87 -3 -87 -68 0 -79 77
-176 159 -200 90 -28 179 -9 248 52 74 65 73 60 73 466 0 395 0 395 -60 464
-57 65 -130 90 -221 75z m82 -198 c28 -22 41 -120 29 -219 -9 -71 -25 -94 -64
-94 -53 0 -76 49 -76 162 0 138 47 203 111 151z"/>
<path d="M3357 1413 c-10 -10 -8 -72 3 -93 5 -10 23 -21 39 -25 58 -12 64 -30
69 -197 3 -107 8 -160 18 -175 18 -29 18 -57 -3 -96 -13 -25 -17 -63 -18 -172
-1 -86 -6 -148 -13 -162 -7 -13 -29 -27 -51 -33 -41 -11 -51 -24 -51 -70 0
-46 25 -63 79 -55 68 10 125 38 152 76 22 32 24 44 27 184 1 83 5 160 7 172 3
13 21 37 40 55 47 42 46 73 -2 114 l-38 32 -6 168 c-6 180 -13 210 -54 242
-39 31 -178 56 -198 35z"/>
<path d="M922 1362 c-28 -29 -66 -56 -95 -67 -52 -20 -61 -35 -55 -101 l3 -39
59 -10 c44 -7 61 -15 67 -30 4 -11 8 -183 8 -382 1 -412 -5 -383 88 -383 84 0
78 -43 78 530 0 567 5 530 -68 530 -32 0 -45 -7 -85 -48z"/>
</g>
<defs>
<linearGradient id="paint0_linear_2_5840" x1="-2.05005" y1="36.7549" x2="99.9719" y2="0.679714" gradientUnits="userSpaceOnUse">
<stop stop-color="#00C0FD"/>
<stop offset="1" stop-color="#E70FAA"/>
</linearGradient>
<linearGradient id="paint1_linear_2_5840" x1="-2.05004" y1="36.755" x2="99.972" y2="0.679755" gradientUnits="userSpaceOnUse">
<stop stop-color="#00C0FD"/>
<stop offset="1" stop-color="#E70FAA"/>
</linearGradient>
<linearGradient id="paint2_linear_2_5840" x1="-2.05001" y1="36.755" x2="99.972" y2="0.679757" gradientUnits="userSpaceOnUse">
<stop stop-color="#00C0FD"/>
<stop offset="1" stop-color="#E70FAA"/>
</linearGradient>
<linearGradient id="paint3_linear_2_5840" x1="-2.05005" y1="36.7549" x2="99.9719" y2="0.679708" gradientUnits="userSpaceOnUse">
<stop stop-color="#00C0FD"/>
<stop offset="1" stop-color="#E70FAA"/>
</linearGradient>
<linearGradient id="paint4_linear_2_5840" x1="-2.05008" y1="36.7549" x2="99.9719" y2="0.679722" gradientUnits="userSpaceOnUse">
<stop stop-color="#00C0FD"/>
<stop offset="1" stop-color="#E70FAA"/>
</linearGradient>
<linearGradient id="paint5_linear_2_5840" x1="-0.244359" y1="59.3455" x2="93.6381" y2="39.507" gradientUnits="userSpaceOnUse">
<stop stop-color="#13B0F5"/>
<stop offset="1" stop-color="#CA24B4"/>
</linearGradient>
<linearGradient id="paint6_linear_2_5840" x1="-0.24451" y1="59.3455" x2="93.638" y2="39.507" gradientUnits="userSpaceOnUse">
<stop stop-color="#13B0F5"/>
<stop offset="1" stop-color="#CA24B4"/>
</linearGradient>
<linearGradient id="paint7_linear_2_5840" x1="-0.244492" y1="59.3453" x2="93.638" y2="39.5068" gradientUnits="userSpaceOnUse">
<stop stop-color="#13B0F5"/>
<stop offset="1" stop-color="#CA24B4"/>
</linearGradient>
<linearGradient id="paint8_linear_2_5840" x1="-0.244461" y1="59.3455" x2="93.638" y2="39.507" gradientUnits="userSpaceOnUse">
<stop stop-color="#13B0F5"/>
<stop offset="1" stop-color="#CA24B4"/>
</linearGradient>
<linearGradient id="paint9_linear_2_5840" x1="-0.244434" y1="59.3455" x2="93.6381" y2="39.507" gradientUnits="userSpaceOnUse">
<stop stop-color="#13B0F5"/>
<stop offset="1" stop-color="#CA24B4"/>
</linearGradient>
<linearGradient id="paint10_linear_2_5840" x1="-0.244473" y1="59.3455" x2="93.638" y2="39.507" gradientUnits="userSpaceOnUse">
<stop stop-color="#13B0F5"/>
<stop offset="1" stop-color="#CA24B4"/>
</linearGradient>
<linearGradient id="paint11_linear_2_5840" x1="-0.244413" y1="59.3454" x2="93.6381" y2="39.5069" gradientUnits="userSpaceOnUse">
<stop stop-color="#13B0F5"/>
<stop offset="1" stop-color="#CA24B4"/>
</linearGradient>
<clipPath id="clip0_2_5840">
<rect width="97" height="59" fill="white"/>
</clipPath>
</defs>
</svg>
