<?xml version="1.0" standalone="no"?>
<!DOCTYPE svg PUBLIC "-//W3C//DTD SVG 20010904//EN"
 "http://www.w3.org/TR/2001/REC-SVG-20010904/DTD/svg10.dtd">
<svg version="1.0" xmlns="http://www.w3.org/2000/svg"
 width="14.000000pt" height="8.000000pt" viewBox="0 0 1410.000000 808.000000"
 preserveAspectRatio="xMidYMid meet">

<g transform="translate(0.000000,808.000000) scale(0.100000,-0.100000)"
fill="#fff" stroke="none">
<path d="M4820 5035 c0 -11 -11 -15 -40 -15 -29 0 -40 -4 -40 -15 0 -10 -10
-15 -29 -15 -20 0 -30 -6 -34 -20 -3 -11 -12 -20 -21 -20 -9 0 -16 -7 -16 -15
0 -8 -7 -15 -15 -15 -8 0 -15 -9 -15 -20 0 -11 -7 -20 -15 -20 -8 0 -17 -14
-21 -35 -3 -19 -12 -35 -19 -35 -9 0 -14 -24 -17 -82 -2 -53 -8 -83 -16 -86
-9 -3 -12 -89 -12 -375 0 -205 -3 -382 -6 -394 -4 -13 -13 -23 -20 -23 -8 0
-14 -6 -14 -14 0 -9 -12 -16 -32 -18 l-33 -3 -3 -151 -3 -152 36 -6 c21 -4 35
-13 35 -21 0 -8 6 -15 14 -15 7 0 16 -10 20 -22 3 -13 6 -197 6 -410 0 -338 2
-388 15 -388 12 0 15 -14 15 -70 0 -56 3 -70 15 -70 10 0 15 -10 15 -31 0 -22
5 -32 20 -36 11 -3 20 -14 20 -24 0 -11 7 -19 15 -19 8 0 15 -7 15 -15 0 -8 7
-15 15 -15 8 0 15 -7 15 -15 0 -8 9 -15 20 -15 11 0 20 -6 20 -14 0 -8 15 -17
35 -20 21 -4 35 -13 35 -21 0 -12 18 -15 90 -15 73 0 90 3 90 15 0 8 5 15 10
15 6 0 10 53 10 140 l0 140 -35 0 c-24 0 -35 5 -35 14 0 8 -13 17 -30 21 l-30
7 0 424 c0 353 -2 424 -14 424 -13 0 -26 41 -26 86 0 15 -6 24 -15 24 -10 0
-15 10 -15 30 0 20 -5 30 -15 30 -8 0 -15 9 -15 20 0 11 7 20 15 20 8 0 15 9
15 20 0 11 6 20 14 20 9 0 16 17 20 49 4 27 12 51 19 54 9 3 13 104 15 430 2
368 5 427 17 427 8 0 15 7 15 15 0 8 9 15 20 15 11 0 20 6 20 14 0 8 14 17 30
21 l30 7 0 149 0 149 -80 0 c-64 0 -80 -3 -80 -15z"/>
<path d="M9560 4895 c0 -148 1 -155 20 -155 11 0 20 -7 20 -15 0 -10 10 -15
29 -15 25 0 30 -5 35 -34 4 -19 12 -36 19 -39 9 -3 13 -109 15 -445 2 -381 5
-442 17 -442 8 0 15 -9 15 -20 0 -11 6 -20 14 -20 17 0 28 -42 20 -75 -3 -14
-12 -25 -20 -25 -9 0 -14 -12 -14 -35 0 -24 -5 -35 -15 -35 -13 0 -15 -54 -15
-425 0 -366 -2 -426 -15 -431 -8 -3 -17 -21 -21 -40 -3 -19 -12 -34 -20 -34
-8 0 -14 -7 -14 -15 0 -10 -11 -15 -35 -15 l-35 0 0 -155 0 -155 85 0 c66 0
85 3 85 14 0 8 15 17 35 20 21 4 35 13 35 21 0 10 11 15 35 15 28 0 35 4 35
20 0 11 7 20 15 20 8 0 15 7 15 15 0 8 7 15 15 15 8 0 17 14 21 35 3 19 12 35
19 35 7 0 15 20 19 49 4 27 12 51 19 54 9 3 13 108 15 445 l3 441 29 6 c15 3
31 13 34 21 3 8 12 14 21 14 13 0 15 22 15 155 l0 155 -35 0 c-24 0 -35 5 -35
15 0 8 -7 15 -15 15 -12 0 -15 63 -17 445 -2 363 -6 447 -17 454 -7 5 -16 29
-18 55 -4 30 -10 46 -19 46 -8 0 -14 9 -14 20 0 11 -9 28 -20 37 -11 10 -20
23 -20 29 0 7 -13 15 -29 19 -16 3 -32 13 -35 21 -3 8 -12 14 -21 14 -8 0 -15
7 -15 15 0 11 -12 15 -50 15 -38 0 -50 4 -50 15 0 12 -14 15 -70 15 l-70 0 0
-155z"/>
<path d="M6917 4953 c-4 -3 -7 -546 -7 -1205 l0 -1198 155 0 155 0 0 1199 0
1199 -22 6 c-31 8 -273 8 -281 -1z"/>
<path d="M6115 4743 c-11 -3 -24 -11 -28 -19 -4 -8 -21 -14 -37 -14 -19 0 -30
-5 -30 -14 0 -8 -15 -17 -35 -20 -21 -4 -35 -13 -35 -21 0 -8 -6 -15 -14 -15
-8 0 -17 -13 -21 -30 -4 -16 -13 -30 -21 -30 -8 0 -14 -9 -14 -20 0 -11 -6
-20 -14 -20 -9 0 -16 -20 -20 -62 -4 -35 -13 -66 -19 -70 -18 -11 -17 -510 1
-516 6 -2 12 -14 12 -27 0 -44 13 -85 26 -85 9 0 14 -11 14 -31 0 -22 5 -32
20 -36 11 -3 20 -12 20 -19 0 -8 7 -14 15 -14 8 0 15 -6 15 -14 0 -8 14 -17
30 -21 17 -4 30 -13 30 -21 0 -10 12 -14 40 -14 29 0 40 -4 40 -15 0 -12 14
-15 63 -15 34 0 72 -3 85 -6 24 -7 31 -34 7 -34 -10 0 -16 -16 -21 -50 -4 -32
-11 -50 -20 -50 -10 0 -14 -14 -14 -50 0 -37 -4 -50 -15 -50 -10 0 -16 -16
-21 -49 -4 -28 -12 -52 -20 -55 -8 -3 -14 -20 -14 -41 0 -23 -5 -35 -14 -35
-9 0 -15 -16 -19 -46 -2 -26 -10 -50 -17 -54 -7 -4 -15 -28 -17 -54 -3 -27
-11 -46 -18 -46 -7 0 -15 -19 -18 -47 -3 -27 -11 -50 -21 -55 -9 -5 -16 -22
-16 -38 l0 -30 175 0 175 0 0 30 c0 20 5 30 15 30 10 0 15 11 15 35 0 21 6 37
16 43 10 5 18 28 21 55 4 31 10 47 19 47 10 0 14 14 14 50 0 37 4 50 15 50 10
0 16 16 21 50 4 32 11 50 20 50 9 0 14 12 14 35 0 23 5 35 14 35 9 0 15 16 19
47 3 27 11 50 21 55 11 6 16 23 16 53 0 33 4 45 15 45 10 0 15 11 15 35 0 21
6 37 16 43 10 5 18 28 21 55 4 31 10 47 19 47 10 0 14 14 14 50 0 36 5 52 18
59 16 9 17 36 17 356 0 319 -1 347 -17 356 -11 6 -18 22 -18 39 0 20 -5 30
-15 30 -8 0 -15 9 -15 20 0 11 -7 20 -15 20 -8 0 -15 7 -15 15 0 8 -9 15 -20
15 -13 0 -20 7 -20 20 0 13 -7 20 -20 20 -11 0 -20 7 -20 15 0 10 -11 15 -35
15 -23 0 -35 5 -35 14 0 8 -17 16 -46 20 -53 7 -269 6 -299 -1z m211 -318 c4
-8 13 -15 21 -15 8 0 17 -9 20 -20 3 -11 9 -20 14 -20 5 0 9 -92 9 -204 0
-172 -2 -205 -15 -210 -8 -3 -15 -12 -15 -21 0 -11 -10 -15 -35 -15 -24 0 -35
-5 -35 -15 0 -10 -10 -15 -30 -15 -20 0 -30 5 -30 15 0 8 -9 15 -20 15 -11 0
-20 6 -20 14 0 7 -9 16 -20 19 -19 5 -20 13 -20 204 0 209 4 243 26 243 8 0
14 6 14 14 0 17 20 23 83 25 34 1 49 -3 53 -14z"/>
<path d="M7738 4743 c-25 -3 -38 -9 -38 -19 0 -9 -11 -14 -35 -14 -24 0 -35
-5 -35 -15 0 -8 -7 -15 -15 -15 -8 0 -15 -6 -15 -14 0 -7 -9 -16 -20 -19 -11
-3 -20 -12 -20 -21 0 -9 -7 -16 -15 -16 -8 0 -15 -9 -15 -20 0 -11 -6 -20 -14
-20 -8 0 -17 -15 -20 -34 -4 -19 -12 -36 -19 -39 -18 -6 -18 -1458 0 -1464 7
-3 15 -20 19 -39 3 -19 12 -34 20 -34 8 0 14 -9 14 -20 0 -11 7 -20 15 -20 8
0 15 -7 15 -16 0 -9 9 -18 20 -21 11 -3 20 -12 20 -19 0 -8 7 -14 15 -14 8 0
15 -7 15 -15 0 -10 11 -15 35 -15 23 0 35 -5 35 -14 0 -16 70 -26 196 -26 121
0 184 9 184 26 0 9 12 14 35 14 23 0 35 5 35 14 0 8 15 17 35 20 21 4 35 13
35 21 0 8 6 15 14 15 8 0 17 13 21 29 3 16 13 32 21 35 8 3 14 15 14 26 0 11
6 20 14 20 9 0 15 19 19 62 3 34 10 64 16 66 8 3 11 194 11 637 0 443 -3 634
-11 637 -6 2 -13 32 -16 66 -4 43 -10 62 -19 62 -8 0 -14 9 -14 20 0 11 -6 23
-14 26 -8 3 -18 19 -21 35 -4 16 -13 29 -21 29 -8 0 -14 7 -14 15 0 8 -14 17
-35 21 -20 3 -35 12 -35 20 0 9 -12 14 -35 14 -23 0 -35 5 -35 14 0 7 -14 16
-31 20 -33 6 -246 6 -311 -1z m212 -328 c0 -8 7 -15 15 -15 8 0 15 -7 15 -15
0 -8 7 -15 15 -15 13 0 15 -74 15 -605 0 -531 -2 -605 -15 -605 -8 0 -15 -7
-15 -15 0 -8 -7 -15 -15 -15 -8 0 -15 -7 -15 -15 0 -12 -13 -15 -55 -15 -42 0
-55 3 -55 15 0 8 -7 15 -15 15 -8 0 -15 7 -15 15 0 7 -8 18 -17 24 -17 9 -18
48 -18 596 0 548 1 587 18 596 9 6 17 17 17 24 0 8 7 15 15 15 8 0 15 7 15 15
0 12 13 15 55 15 42 0 55 -3 55 -15z"/>
<path d="M8843 4743 c-20 -3 -33 -10 -33 -19 0 -9 -11 -14 -35 -14 -24 0 -35
-5 -35 -15 0 -8 -9 -15 -20 -15 -13 0 -20 -7 -20 -20 0 -13 -7 -20 -20 -20
-11 0 -20 -7 -20 -15 0 -8 -7 -15 -15 -15 -8 0 -15 -9 -15 -20 0 -11 -7 -20
-15 -20 -10 0 -15 -10 -15 -30 0 -17 -7 -33 -17 -39 -17 -9 -18 -36 -18 -342
0 -252 3 -333 12 -336 7 -3 15 -20 19 -39 3 -19 12 -34 20 -34 8 0 14 -9 14
-20 0 -11 7 -20 15 -20 8 0 15 -7 15 -16 0 -9 9 -18 20 -21 11 -3 20 -12 20
-19 0 -8 7 -14 15 -14 8 0 15 -7 15 -15 0 -11 11 -15 40 -15 28 0 40 -4 40
-15 0 -11 18 -15 83 -17 l82 -3 -3 -33 c-1 -19 -9 -40 -17 -49 -8 -8 -15 -32
-15 -54 0 -26 -4 -39 -14 -39 -9 0 -15 -16 -19 -46 -2 -26 -10 -50 -17 -54 -7
-4 -15 -28 -17 -54 -3 -27 -11 -46 -18 -46 -7 0 -15 -19 -18 -47 -3 -27 -11
-50 -21 -55 -10 -6 -16 -22 -16 -43 0 -24 -5 -35 -15 -35 -11 0 -15 -12 -15
-50 0 -36 -4 -50 -14 -50 -15 0 -26 -30 -26 -72 0 -18 -5 -28 -15 -28 -8 0
-15 -7 -15 -15 0 -13 26 -15 175 -15 149 0 175 2 175 15 0 8 7 15 15 15 10 0
15 11 15 35 0 23 5 35 14 35 9 0 15 16 19 46 2 26 10 50 17 54 7 4 15 28 17
54 4 30 10 46 19 46 9 0 14 12 14 35 0 21 6 37 16 43 10 5 18 28 21 55 4 31
10 47 19 47 10 0 14 14 14 50 0 36 4 50 14 50 8 0 17 15 20 35 4 21 13 35 21
35 11 0 15 13 15 50 0 36 4 50 14 50 9 0 15 16 19 47 3 27 11 50 21 55 11 6
16 23 16 58 0 36 4 50 14 50 9 0 15 20 19 66 3 40 10 70 18 75 20 12 20 526 1
538 -7 4 -15 31 -19 59 -4 34 -10 52 -19 52 -8 0 -14 9 -14 20 0 11 -9 28 -20
37 -11 10 -20 23 -20 30 0 7 -7 13 -15 13 -8 0 -15 7 -15 15 0 8 -14 17 -35
21 -20 3 -35 12 -35 20 0 9 -12 14 -35 14 -23 0 -35 5 -35 14 0 7 -14 16 -31
20 -33 6 -251 6 -306 -1z m206 -309 c17 -4 31 -13 31 -20 0 -8 6 -14 14 -14
21 0 26 -47 26 -225 0 -178 -5 -225 -26 -225 -8 0 -14 -7 -14 -15 0 -8 -9 -15
-20 -15 -11 0 -20 -7 -20 -15 0 -10 -11 -15 -35 -15 -24 0 -35 5 -35 15 0 10
-10 15 -30 15 -20 0 -30 5 -30 15 0 7 -8 18 -17 24 -16 8 -18 31 -21 210 -3
172 -1 201 12 201 8 0 17 13 21 29 4 20 14 31 28 34 36 7 83 7 116 1z"/>
<path d="M5260 4725 c0 -10 -10 -15 -30 -15 -19 0 -30 -5 -30 -14 0 -8 -15
-17 -35 -20 -21 -4 -35 -13 -35 -21 0 -8 -9 -15 -20 -15 -11 0 -20 -7 -20 -15
0 -8 -9 -15 -20 -15 -19 0 -20 -7 -20 -169 0 -97 4 -172 10 -176 15 -9 60 6
60 21 0 9 12 14 35 14 24 0 35 5 35 15 0 11 12 15 50 15 l50 0 0 -770 0 -770
160 0 160 0 0 953 c0 523 -3 962 -6 975 -6 22 -9 22 -175 22 -144 0 -169 -2
-169 -15z"/>
</g>
</svg>
